<mxfile host="app.diagrams.net" modified="2023-04-21T12:06:23.397Z" agent="Mozilla/5.0 (X11; Linux x86_64; rv:109.0) Gecko/20100101 Firefox/112.0" etag="Poua8wP6dmzhs6EsX_5Q" version="21.2.1" type="device">
  <diagram name="Page-1" id="PchW1Y0QIS6G1lz6r0_7">
    <mxGraphModel dx="1195" dy="667" grid="1" gridSize="10" guides="1" tooltips="1" connect="1" arrows="1" fold="1" page="1" pageScale="1" pageWidth="850" pageHeight="1100" math="0" shadow="0">
      <root>
        <mxCell id="0" />
        <mxCell id="1" parent="0" />
        <mxCell id="hhqkoH7DIy3Lh6CEVrbi-15" value="" style="edgeStyle=orthogonalEdgeStyle;rounded=0;orthogonalLoop=1;jettySize=auto;html=1;" edge="1" parent="1" source="hhqkoH7DIy3Lh6CEVrbi-1" target="hhqkoH7DIy3Lh6CEVrbi-2">
          <mxGeometry relative="1" as="geometry" />
        </mxCell>
        <mxCell id="hhqkoH7DIy3Lh6CEVrbi-1" value="&lt;div&gt;Start&lt;/div&gt;" style="strokeWidth=2;html=1;shape=mxgraph.flowchart.terminator;whiteSpace=wrap;" vertex="1" parent="1">
          <mxGeometry x="40" y="40" width="100" height="60" as="geometry" />
        </mxCell>
        <mxCell id="hhqkoH7DIy3Lh6CEVrbi-16" value="" style="edgeStyle=orthogonalEdgeStyle;rounded=0;orthogonalLoop=1;jettySize=auto;html=1;" edge="1" parent="1" source="hhqkoH7DIy3Lh6CEVrbi-2" target="hhqkoH7DIy3Lh6CEVrbi-3">
          <mxGeometry relative="1" as="geometry" />
        </mxCell>
        <mxCell id="hhqkoH7DIy3Lh6CEVrbi-2" value="&lt;div&gt;input&lt;/div&gt;&lt;div&gt;number&lt;br&gt;&lt;/div&gt;" style="shape=parallelogram;html=1;strokeWidth=2;perimeter=parallelogramPerimeter;whiteSpace=wrap;rounded=1;arcSize=12;size=0.23;" vertex="1" parent="1">
          <mxGeometry x="40" y="140" width="100" height="60" as="geometry" />
        </mxCell>
        <mxCell id="hhqkoH7DIy3Lh6CEVrbi-17" value="" style="edgeStyle=orthogonalEdgeStyle;rounded=0;orthogonalLoop=1;jettySize=auto;html=1;" edge="1" parent="1" source="hhqkoH7DIy3Lh6CEVrbi-3" target="hhqkoH7DIy3Lh6CEVrbi-8">
          <mxGeometry relative="1" as="geometry" />
        </mxCell>
        <mxCell id="hhqkoH7DIy3Lh6CEVrbi-19" value="" style="edgeStyle=orthogonalEdgeStyle;rounded=0;orthogonalLoop=1;jettySize=auto;html=1;" edge="1" parent="1" source="hhqkoH7DIy3Lh6CEVrbi-3" target="hhqkoH7DIy3Lh6CEVrbi-4">
          <mxGeometry relative="1" as="geometry" />
        </mxCell>
        <mxCell id="hhqkoH7DIy3Lh6CEVrbi-3" value="number &amp;lt;= 0" style="strokeWidth=2;html=1;shape=mxgraph.flowchart.decision;whiteSpace=wrap;" vertex="1" parent="1">
          <mxGeometry x="40" y="240" width="100" height="100" as="geometry" />
        </mxCell>
        <mxCell id="hhqkoH7DIy3Lh6CEVrbi-28" style="edgeStyle=orthogonalEdgeStyle;rounded=0;orthogonalLoop=1;jettySize=auto;html=1;exitX=1;exitY=0.5;exitDx=0;exitDy=0;entryX=1;entryY=0.5;entryDx=0;entryDy=0;entryPerimeter=0;" edge="1" parent="1" source="hhqkoH7DIy3Lh6CEVrbi-4" target="hhqkoH7DIy3Lh6CEVrbi-26">
          <mxGeometry relative="1" as="geometry">
            <Array as="points">
              <mxPoint x="470" y="290" />
              <mxPoint x="470" y="730" />
            </Array>
          </mxGeometry>
        </mxCell>
        <mxCell id="hhqkoH7DIy3Lh6CEVrbi-4" value="print &quot;Masukkan integer positif&quot;" style="rounded=1;whiteSpace=wrap;html=1;absoluteArcSize=1;arcSize=14;strokeWidth=2;" vertex="1" parent="1">
          <mxGeometry x="180" y="260" width="120" height="60" as="geometry" />
        </mxCell>
        <mxCell id="hhqkoH7DIy3Lh6CEVrbi-18" value="" style="edgeStyle=orthogonalEdgeStyle;rounded=0;orthogonalLoop=1;jettySize=auto;html=1;" edge="1" parent="1" source="hhqkoH7DIy3Lh6CEVrbi-8" target="hhqkoH7DIy3Lh6CEVrbi-9">
          <mxGeometry relative="1" as="geometry" />
        </mxCell>
        <mxCell id="hhqkoH7DIy3Lh6CEVrbi-8" value="i = 1" style="rounded=1;whiteSpace=wrap;html=1;absoluteArcSize=1;arcSize=14;strokeWidth=2;" vertex="1" parent="1">
          <mxGeometry x="30" y="380" width="120" height="48.75" as="geometry" />
        </mxCell>
        <mxCell id="hhqkoH7DIy3Lh6CEVrbi-12" value="" style="edgeStyle=orthogonalEdgeStyle;rounded=0;orthogonalLoop=1;jettySize=auto;html=1;" edge="1" parent="1" source="hhqkoH7DIy3Lh6CEVrbi-9" target="hhqkoH7DIy3Lh6CEVrbi-10">
          <mxGeometry relative="1" as="geometry" />
        </mxCell>
        <mxCell id="hhqkoH7DIy3Lh6CEVrbi-25" value="" style="edgeStyle=orthogonalEdgeStyle;rounded=0;orthogonalLoop=1;jettySize=auto;html=1;" edge="1" parent="1" source="hhqkoH7DIy3Lh6CEVrbi-9" target="hhqkoH7DIy3Lh6CEVrbi-24">
          <mxGeometry relative="1" as="geometry" />
        </mxCell>
        <mxCell id="hhqkoH7DIy3Lh6CEVrbi-9" value="i&amp;nbsp; &amp;lt;= num" style="strokeWidth=2;html=1;shape=mxgraph.flowchart.decision;whiteSpace=wrap;" vertex="1" parent="1">
          <mxGeometry x="40" y="470" width="100" height="100" as="geometry" />
        </mxCell>
        <mxCell id="hhqkoH7DIy3Lh6CEVrbi-13" value="" style="edgeStyle=orthogonalEdgeStyle;rounded=0;orthogonalLoop=1;jettySize=auto;html=1;" edge="1" parent="1" source="hhqkoH7DIy3Lh6CEVrbi-10" target="hhqkoH7DIy3Lh6CEVrbi-11">
          <mxGeometry relative="1" as="geometry" />
        </mxCell>
        <mxCell id="hhqkoH7DIy3Lh6CEVrbi-10" value="total += i" style="rounded=1;whiteSpace=wrap;html=1;absoluteArcSize=1;arcSize=14;strokeWidth=2;" vertex="1" parent="1">
          <mxGeometry x="180" y="495.63" width="120" height="48.75" as="geometry" />
        </mxCell>
        <mxCell id="hhqkoH7DIy3Lh6CEVrbi-22" style="edgeStyle=orthogonalEdgeStyle;rounded=0;orthogonalLoop=1;jettySize=auto;html=1;exitX=0.5;exitY=0;exitDx=0;exitDy=0;" edge="1" parent="1" source="hhqkoH7DIy3Lh6CEVrbi-11">
          <mxGeometry relative="1" as="geometry">
            <mxPoint x="90" y="450" as="targetPoint" />
            <Array as="points">
              <mxPoint x="400" y="450" />
            </Array>
          </mxGeometry>
        </mxCell>
        <mxCell id="hhqkoH7DIy3Lh6CEVrbi-11" value="&lt;div&gt;i++&lt;/div&gt;" style="rounded=1;whiteSpace=wrap;html=1;absoluteArcSize=1;arcSize=14;strokeWidth=2;" vertex="1" parent="1">
          <mxGeometry x="340" y="495.63" width="120" height="48.75" as="geometry" />
        </mxCell>
        <mxCell id="hhqkoH7DIy3Lh6CEVrbi-27" value="" style="edgeStyle=orthogonalEdgeStyle;rounded=0;orthogonalLoop=1;jettySize=auto;html=1;" edge="1" parent="1" source="hhqkoH7DIy3Lh6CEVrbi-24" target="hhqkoH7DIy3Lh6CEVrbi-26">
          <mxGeometry relative="1" as="geometry" />
        </mxCell>
        <mxCell id="hhqkoH7DIy3Lh6CEVrbi-24" value="print total" style="rounded=1;whiteSpace=wrap;html=1;absoluteArcSize=1;arcSize=14;strokeWidth=2;" vertex="1" parent="1">
          <mxGeometry x="30" y="610" width="120" height="48.75" as="geometry" />
        </mxCell>
        <mxCell id="hhqkoH7DIy3Lh6CEVrbi-26" value="End" style="strokeWidth=2;html=1;shape=mxgraph.flowchart.terminator;whiteSpace=wrap;" vertex="1" parent="1">
          <mxGeometry x="40" y="700" width="100" height="60" as="geometry" />
        </mxCell>
        <mxCell id="hhqkoH7DIy3Lh6CEVrbi-29" value="True" style="text;html=1;strokeColor=none;fillColor=none;align=center;verticalAlign=middle;whiteSpace=wrap;rounded=0;" vertex="1" parent="1">
          <mxGeometry x="140" y="270" width="30" height="20" as="geometry" />
        </mxCell>
        <mxCell id="hhqkoH7DIy3Lh6CEVrbi-30" value="False" style="text;html=1;strokeColor=none;fillColor=none;align=center;verticalAlign=middle;whiteSpace=wrap;rounded=0;" vertex="1" parent="1">
          <mxGeometry x="90" y="340" width="30" height="20" as="geometry" />
        </mxCell>
        <mxCell id="hhqkoH7DIy3Lh6CEVrbi-31" value="False" style="text;html=1;strokeColor=none;fillColor=none;align=center;verticalAlign=middle;whiteSpace=wrap;rounded=0;" vertex="1" parent="1">
          <mxGeometry x="90" y="570" width="30" height="20" as="geometry" />
        </mxCell>
        <mxCell id="hhqkoH7DIy3Lh6CEVrbi-32" value="True" style="text;html=1;strokeColor=none;fillColor=none;align=center;verticalAlign=middle;whiteSpace=wrap;rounded=0;" vertex="1" parent="1">
          <mxGeometry x="140" y="500" width="30" height="20" as="geometry" />
        </mxCell>
      </root>
    </mxGraphModel>
  </diagram>
</mxfile>
